<svg xmlns="http://www.w3.org/2000/svg" xmlns:xlink="http://www.w3.org/1999/xlink" version="1.1" width="1000" height="1000" viewBox="0 0 1000 1000" xml:space="preserve">
<desc>Created with Fabric.js 3.5.0</desc>
<defs>
</defs>
<rect x="0" y="0" width="100%" height="100%" fill="rgba(255,255,255,0)"/>
<g transform="matrix(23.6056 -14.266 14.266 23.6056 499.9991 499.9993)" id="531158">
<g style="" vector-effect="non-scaling-stroke">
		<g transform="matrix(1 0 0 1 0.0005 3.8995)" id="Capa_1">
<path style="stroke: none; stroke-width: 1; stroke-dasharray: none; stroke-linecap: butt; stroke-dashoffset: 0; stroke-linejoin: miter; stroke-miterlimit: 4; is-custom-font: none; font-file-url: none; fill: rgb(255,255,255); fill-rule: nonzero; opacity: 1;" transform=" translate(-16.4805, -20.3795)" d="M 16.48 18.084 c -9.101 0 -16.479 -2.964 -16.479 -6.622 v 10.742 h 0.05 c 0 3.916 7.357 7.093 16.429 7.093 c 9.077 0 16.432 -3.177 16.432 -7.093 h 0.048 V 11.462 C 32.961 15.12 25.582 18.084 16.48 18.084 z" stroke-linecap="round"/>
</g>
		<g transform="matrix(1 0 0 1 0 -6.195)" id="Capa_1">
<ellipse style="stroke: none; stroke-width: 1; stroke-dasharray: none; stroke-linecap: butt; stroke-dashoffset: 0; stroke-linejoin: miter; stroke-miterlimit: 4; is-custom-font: none; font-file-url: none; fill: rgb(255,255,255); fill-rule: nonzero; opacity: 1;" cx="0" cy="0" rx="16.48" ry="6.622"/>
</g>
</g>
</g>
</svg>