<svg xmlns="http://www.w3.org/2000/svg" xmlns:xlink="http://www.w3.org/1999/xlink" version="1.1" width="1000" height="1000" viewBox="0 0 1000 1000" xml:space="preserve">
<desc>Created with Fabric.js 3.5.0</desc>
<defs>
</defs>
<rect x="0" y="0" width="100%" height="100%" fill="rgba(255,255,255,0)"/>
<g transform="matrix(1.9631 0 0 1.9631 500.0103 500.0103)" id="989854">
<g style="" vector-effect="non-scaling-stroke">
		<g transform="matrix(1 0 0 1 0 207.5)" id="Layer_1">
<path style="stroke: none; stroke-width: 1; stroke-dasharray: none; stroke-linecap: butt; stroke-dashoffset: 0; stroke-linejoin: miter; stroke-miterlimit: 4; is-custom-font: none; font-file-url: none; fill: rgb(255,255,255); fill-rule: nonzero; opacity: 1;" transform=" translate(-231.55, -979.41)" d="M 289.85 955.36 h -116.6 c -4.1 0 -7.5 3.4 -7.5 7.5 v 33.1 c 0 4.1 3.4 7.5 7.5 7.5 h 116.6 c 4.2 0 7.5 -3.4 7.5 -7.5 v -33.1 C 297.35 958.76 293.95 955.36 289.85 955.36 z M 282.35 988.46 h -101.6 v -18.1 h 101.6 V 988.46 z" stroke-linecap="round"/>
</g>
		<g transform="matrix(1 0 0 1 -0.0002 -32.95)" id="Layer_1">
<path style="stroke: none; stroke-width: 1; stroke-dasharray: none; stroke-linecap: butt; stroke-dashoffset: 0; stroke-linejoin: miter; stroke-miterlimit: 4; is-custom-font: none; font-file-url: none; fill: rgb(255,255,255); fill-rule: nonzero; opacity: 1;" transform=" translate(-231.5498, -738.96)" d="M 462.37 927.46 L 462.37 927.46 l -8 -19.9 c -0.1 -0.1 -0.1 -0.3 -0.2 -0.4 c -11.8 -25.2 -37.4 -41.4 -65.1 -41.4 h -53 c -20.9 0 -39.6 -11.6 -49 -30.4 l -27.8 -54.3 l 103.8 -230.1 c 1 -2.3 0.8 -5 -0.5 -7.2 s -3.8 -3.4 -6.3 -3.4 h -25.2 c -2.8 0 -5.4 1.6 -6.7 4.1 l -92.8 181.5 l -92.6 -181.5 c -1.3 -2.5 -3.9 -4.1 -6.7 -4.1 h -25.2 c -2.5 0 -4.9 1.3 -6.3 3.4 c -1.4 2.1 -1.6 4.8 -0.5 7.1 l 103.2 230 l -27.5 53.9 c -9.3 18.7 -28.1 30.3 -49 30.3 h -53 c -27.7 0 -53.3 16.3 -65.1 41.4 c -0.1 0.1 -0.1 0.3 -0.2 0.4 l -8 19.9 c -0.9 2.3 -0.6 4.9 0.7 6.9 c 1.4 2.1 3.7 3.3 6.1 3.3 c 0.6 0 39.9 0.6 79 0.6 c 19.7 0 39.4 -0.1 53.9 -0.6 c 0.1 0 0.1 0 0.2 0 c 27 -1.5 57 -22.1 69.9 -47.9 c 0 -0.1 0.1 -0.2 0.1 -0.3 l 20.6 -45.7 l 21.1 46.3 c 0.1 0.1 0.1 0.3 0.2 0.4 c 13.9 26.3 43.3 46.3 69.9 47.7 c 0.1 0 0.3 0 0.4 0 h 132.5 c 2.5 0 4.8 -1.2 6.2 -3.3 C 463.07 932.46 463.37 929.76 462.37 927.46 z M 118.67 555.46 L 118.67 555.46 l 9 0 l 95.5 187.1 l -10.9 21.3 L 118.67 555.46 z M 18.77 922.26 l 3.8 -9.5 c 8.1 -17 24 -28.8 42.2 -31.8 l -18.5 41.6 C 35.27 922.46 25.67 922.36 18.77 922.26 z M 197.07 882.76 c -10.5 20.9 -35.6 38.2 -57.2 39.5 c -20.4 0.6 -50.8 0.7 -77.4 0.5 l 18.9 -42.5 h 45.5 c 26.6 0 50.5 -14.8 62.3 -38.5 l 29.1 -56.8 c 0.1 -0.1 0.1 -0.3 0.2 -0.4 l 117.1 -229 h 9 L 197.07 882.76 z M 323.17 922.86 c -21.3 -1.3 -45.8 -18.3 -57.2 -39.6 l -26.5 -58 l 12 -26.6 l 22.3 43.6 c 11.9 23.8 35.8 38.6 62.4 38.6 h 47.4 l 17.7 42 H 323.17 z M 417.57 922.76 l -17.3 -40.9 c 17.4 3.5 32.5 15.1 40.3 31.5 l 3.8 9.4 H 417.57 z" stroke-linecap="round"/>
</g>
</g>
</g>
</svg>